<?xml version="1.0" encoding="utf-8"?>
<!-- Generator: Adobe Illustrator 19.2.0, SVG Export Plug-In . SVG Version: 6.00 Build 0)  -->
<svg version="1.1" id="Layer_1" xmlns="http://www.w3.org/2000/svg" xmlns:xlink="http://www.w3.org/1999/xlink" x="0px" y="0px"
	 viewBox="0 0 213.3 163.3" style="enable-background:new 0 0 213.3 163.3;" xml:space="preserve">
<style type="text/css">
	.st0{fill:#22346A;}
	.st1{fill:#FFFFFF;}
	.st2{fill:#ED8C22;}
</style>
<g>
	<g id="XMLID_142_">
		<path id="XMLID_387_" class="st1" d="M49.8,31.8L49.8,31.8l1.7,0c14.1,0,25.9,4.8,33.9,11.7c7.5,7.2,11.2,16.7,11.2,28.3
			s-3.7,21-11.2,28.2c-9.9,7.8-22.5,11.7-37.3,11.7H25V31.8H49.8z M51.4,51.1h-5.1l0.2,41h2.2c15.8,0,25.8-7,27.6-20.5
			C76.2,58.3,65.4,51.1,51.4,51.1z"/>
		<path id="XMLID_379_" class="st1" d="M101.9,31.7l19.5,0v60.4H142l15,19.4h-55.1V31.7z"/>
		<path id="XMLID_143_" class="st1" d="M150.6,69.7l0,10.7l23.7,31.2h23.7l-19.2-28.6c3.7-1.7,5.9-3.5,8.4-6.9
			c3.6-4.8,5.4-10,5.4-15.5v-2c0-9-3.2-13.7-8.2-18.6c-3-2.8-6.4-4.9-10.3-6.2c-4.5-1.3-9.1-2-13.9-2h-9.7l0,19.4h6.1h2.4
			c3.6,0,8.1,0.9,10.2,2.7c2.1,1.9,3.1,4,3.1,6.5c0,5.5-5,9.5-10.3,9.5H150.6z"/>
	</g>
	<g id="XMLID_144_">
		<path id="XMLID_591_" class="st1" d="M25,136.2V121h7.6c2.1,0,3.9,0.7,5.4,2.2c1.5,1.5,2.2,3.3,2.2,5.4c0,2.1-0.7,3.9-2.2,5.4
			c-1.5,1.5-3.3,2.2-5.4,2.2h-3.3v6.5H25V136.2z M32.6,125.4h-3.3v6.5l3.3,0c1.8,0,3.3-1.5,3.3-3.3
			C35.9,126.9,34.4,125.4,32.6,125.4z"/>
		<path id="XMLID_588_" class="st1" d="M42,121h7.1c2.4,0,4.4,0.9,5.7,2.2c1.3,1.3,2.1,2.5,2.1,4.9v0.6c0,1.5-0.5,2.8-1.4,4.1
			c-0.8,1.1-1.4,1.5-2.6,2l5,7.9h-5.3l-6.2-9.6v9.6H42L42,121z M52.3,128.3c0-0.8-0.3-1.5-0.9-2.1c-0.6-0.5-1.6-0.9-2.7-0.9h-2.4v6
			H48v0h1.5C51.1,131.4,52.3,130,52.3,128.3z"/>
		<path id="XMLID_585_" class="st1" d="M77.4,124.1c2.2,2.2,3.2,4.8,3.2,7.8c0,3-1.1,5.6-3.2,7.8c-2.2,2.1-4.7,3.2-7.8,3.2
			c-3,0-5.6-1.1-7.8-3.2c-2.2-2.2-3.2-4.7-3.2-7.8c0-3,1.1-5.6,3.2-7.8c2.2-2.2,4.8-3.2,7.8-3.2C72.6,120.9,75.2,122,77.4,124.1z
			 M64.9,127.2c-1.3,1.3-1.9,2.9-1.9,4.7c0,1.8,0.6,3.4,1.9,4.7c1.3,1.3,2.8,1.9,4.7,1.9c1.8,0,3.4-0.6,4.7-1.9
			c1.3-1.3,1.9-2.8,1.9-4.7c0-1.8-0.6-3.4-1.9-4.7c-1.3-1.3-2.8-1.9-4.7-1.9C67.7,125.3,66.2,125.9,64.9,127.2z"/>
		<path id="XMLID_554_" class="st1" d="M88.6,121c3.4,0,6.1,1.4,7.9,3.2c1.9,1.9,2.9,4.5,2.9,7.7c0,3.2-1,5.7-2.9,7.6
			c-2.1,2.1-4.8,3.2-7.9,3.2h-5.8v-21.7L88.6,121L88.6,121z M88.6,125.4h-1.4v13h1.5c3.9,0,6.5-2.6,6.5-6.5
			C95.1,128,92.5,125.4,88.6,125.4z"/>
		<path id="XMLID_543_" class="st1" d="M114.7,134.2V121h4.4v13.1c0,2.4-0.9,4.5-2.6,6.2c-1.7,1.7-3.8,2.6-6.2,2.6
			c-2.4,0-4.5-0.9-6.2-2.6c-1.7-1.7-2.6-3.8-2.6-6.2V121h4.4v13.1c0,2.4,2,4.4,4.4,4.4C112.7,138.5,114.7,136.5,114.7,134.2z"/>
		<path id="XMLID_541_" class="st1" d="M126.5,121v9.6l5.6-9.6h5l-6.4,11l7.4,10.7h-5.3l-6.3-9.1v9.1h-4.3V121H126.5z"/>
		<path id="XMLID_539_" class="st1" d="M148.7,142.9c-3,0-5.6-1.1-7.8-3.2c-2.2-2.2-3.2-4.7-3.2-7.8c0-3,1.1-5.6,3.2-7.8
			c2.2-2.2,4.7-3.2,7.8-3.2l0,0.1c3.3,0,6,1.5,7.8,3.2l-3.1,3.1c-1.3-1.3-2.9-1.9-4.7-1.9c-1.8,0-3.4,0.6-4.7,1.9
			c-1.3,1.3-1.9,2.9-1.9,4.7c0,1.8,0.6,3.4,1.9,4.7c1.3,1.3,2.8,1.9,4.7,1.9c1.8,0,3.4-0.6,4.7-1.9l3.1,3.1
			C154.7,141.4,152.1,142.9,148.7,142.9z"/>
		<path id="XMLID_520_" class="st1" d="M158.2,121h4.4v21.7h-4.4V121z"/>
		<path id="XMLID_517_" class="st1" d="M173.6,134.2v-4.4l-0.1-8.8l4.4,0l0.1,8.7v4.5c0,2.4-0.9,4.5-2.6,6.2
			c-1.7,1.6-3.7,2.5-6.1,2.5h-0.1c-1.8,0-3.5-0.5-4.9-1.5l2.2-3.8c0.7,0.6,1.6,1,2.7,1h0.1C171.6,138.6,173.6,136.6,173.6,134.2z"/>
		<path id="XMLID_514_" class="st1" d="M188.2,120.6l9.9,22.1h-4.7l-1.5-3.3h-7.4l-1.5,3.3h-4.7L188.2,120.6z M190.2,135.6l-2-4.6
			l-2,4.6H190.2z"/>
	</g>
</g>
</svg>