<svg width="20" height="20" viewBox="0 0 20 20" fill="none" xmlns="http://www.w3.org/2000/svg">
<path fill-rule="evenodd" clip-rule="evenodd" d="M10.0059 4.86328C7.16826 4.86328 4.86613 7.16406 4.86613 10C4.86613 12.8359 7.16826 15.1367 10.0059 15.1367C12.8435 15.1367 15.1456 12.8359 15.1456 10C15.1456 7.16406 12.8435 4.86328 10.0059 4.86328ZM10.0059 13.332C8.16494 13.332 6.67188 11.8398 6.67188 10C6.67188 8.16016 8.16494 6.66797 10.0059 6.66797C11.8468 6.66797 13.3398 8.16016 13.3398 10C13.3398 11.8398 11.8468 13.332 10.0059 13.332Z" fill="white"/>
<path d="M15.3488 5.85934C16.0094 5.85934 16.5488 5.32419 16.5488 4.66012C16.5488 3.99997 16.0094 3.4609 15.3488 3.4609C14.6883 3.4609 14.1489 3.99606 14.1489 4.66012C14.1489 5.32028 14.6844 5.85934 15.3488 5.85934Z" fill="white"/>
<path fill-rule="evenodd" clip-rule="evenodd" d="M10.0059 0C7.28943 0 6.94938 0.0117188 5.88235 0.0585937C4.81923 0.105469 4.08833 0.277344 3.45515 0.523437C2.79461 0.78125 2.23569 1.12109 1.68067 1.67969C1.12175 2.23438 0.781708 2.79297 0.523744 3.44922C0.277506 4.08594 0.105531 4.8125 0.0586281 5.875C0.0117256 6.94531 0 7.28516 0 10C0 12.7148 0.0117256 13.0547 0.0586281 14.1211C0.105531 15.1836 0.277506 15.9141 0.523744 16.5469C0.781708 17.207 1.12175 17.7656 1.68067 18.3203C2.23569 18.875 2.79461 19.2188 3.45124 19.4727C4.08833 19.7188 4.81532 19.8906 5.87844 19.9375C6.94548 19.9844 7.28552 19.9961 10.002 19.9961C12.7184 19.9961 13.0584 19.9844 14.1255 19.9375C15.1886 19.8906 15.9195 19.7188 16.5527 19.4727C17.2093 19.2188 17.7682 18.875 18.3232 18.3203C18.8782 17.7656 19.2222 17.207 19.4763 16.5508C19.7225 15.9141 19.8945 15.1875 19.9414 14.125C19.9883 13.0586 20 12.7188 20 10.0039C20 7.28906 19.9883 6.94922 19.9414 5.88281C19.8945 4.82031 19.7225 4.08984 19.4763 3.45703C19.23 2.79297 18.89 2.23438 18.3311 1.67969C17.776 1.125 17.2171 0.78125 16.5605 0.527344C15.9234 0.28125 15.1964 0.109375 14.1333 0.0625C13.0623 0.0117188 12.7223 0 10.0059 0ZM10.0059 1.80078C12.6793 1.80078 12.9959 1.8125 14.0473 1.85937C15.0244 1.90234 15.5521 2.06641 15.9038 2.20312C16.369 2.38281 16.7051 2.60156 17.053 2.94922C17.4047 3.30078 17.6197 3.63281 17.7995 4.09766C17.9363 4.44922 18.1005 4.98047 18.1434 5.95312C18.1903 7.00781 18.2021 7.32422 18.2021 9.99219C18.2021 12.6641 18.1903 12.9805 18.1434 14.0312C18.1005 15.0078 17.9363 15.5352 17.7995 15.8867C17.6197 16.3516 17.4008 16.6875 17.053 17.0352C16.7012 17.3867 16.369 17.6016 15.9038 17.7812C15.5521 17.918 15.0205 18.082 14.0473 18.125C12.992 18.1719 12.6754 18.1836 10.0059 18.1836C7.33242 18.1836 7.01583 18.1719 5.96443 18.125C4.9873 18.082 4.45964 17.918 4.10788 17.7812C3.64276 17.6016 3.30662 17.3828 2.95877 17.0352C2.607 16.6836 2.39203 16.3516 2.21223 15.8867C2.07543 15.5352 1.91128 15.0039 1.86828 14.0312C1.82138 12.9766 1.80965 12.6602 1.80965 9.99219C1.80965 7.32031 1.82138 7.00391 1.86828 5.95312C1.91128 4.97656 2.07543 4.44922 2.21223 4.09766C2.39203 3.63281 2.6109 3.29688 2.95877 2.94922C3.31053 2.59766 3.64276 2.38281 4.10788 2.20312C4.45964 2.06641 4.99121 1.90234 5.96443 1.85937C7.01583 1.8125 7.33242 1.80078 10.0059 1.80078Z" fill="white"/>
</svg>
